<svg width="30" height="30" viewBox="0 0 30 30" fill="none" xmlns="http://www.w3.org/2000/svg">
<path d="M15 0C23.2714 0 30 6.72861 30 15C30 23.2714 23.2714 30 15 30C6.72861 30 4.64065e-07 23.2714 4.64065e-07 15C4.64065e-07 6.72861 6.72861 0 15 0ZM7.33794 27.3704C10.0908 29.1206 12.7096 29.7061 14.9806 29.7061C19.5138 29.7061 22.6599 27.3747 22.7074 27.3401C22.9494 27.1564 23.0315 26.828 22.9041 26.5536L19.5052 19.1832C21.4326 17.7571 22.5648 15.5251 22.5648 13.1072C22.5648 8.93475 19.1703 5.54235 15 5.54235C10.8297 5.54235 7.43518 8.93691 7.43518 13.1072C7.43518 15.5272 8.56958 17.7593 10.497 19.1832L7.0981 26.5536C6.96197 26.8475 7.06353 27.1975 7.33794 27.3704Z" fill="#009B9F"/>
<path d="M15 29.1357C7.19312 29.1357 0.864349 22.8069 0.864349 15C0.864349 7.19303 7.19312 0.864258 15 0.864258C22.807 0.864258 29.1357 7.19303 29.1357 15C29.1357 22.8069 22.807 29.1357 15 29.1357Z" stroke="#009B9F" stroke-miterlimit="10" stroke-linecap="round" stroke-linejoin="round"/>
</svg>
