<svg width="28" height="28" viewBox="0 0 28 28" fill="none" xmlns="http://www.w3.org/2000/svg">
<g clip-path="url(#clip0_165_65)">
<path d="M6.29996 16.3334H15.82V20.2534C15.8177 20.322 15.835 20.3899 15.87 20.4491C15.9049 20.5082 15.9559 20.5562 16.0171 20.5874C16.0783 20.6186 16.1471 20.6318 16.2155 20.6253C16.2839 20.6188 16.349 20.593 16.4033 20.5509L25.1533 14.3034C25.1981 14.269 25.2343 14.2249 25.2593 14.1743C25.2842 14.1237 25.2972 14.0681 25.2972 14.0117C25.2972 13.9553 25.2842 13.8997 25.2593 13.8491C25.2343 13.7985 25.1981 13.7543 25.1533 13.72L16.4033 7.47253C16.349 7.43039 16.2839 7.40457 16.2155 7.39809C16.1471 7.39162 16.0783 7.40476 16.0171 7.43597C15.9559 7.46718 15.9049 7.51517 15.87 7.57433C15.835 7.63349 15.8177 7.70137 15.82 7.77003V11.6667H1.52829C1.43237 11.6667 1.34038 11.7048 1.27256 11.7726C1.20473 11.8405 1.16663 11.9324 1.16663 12.0284V15.9717C1.16663 16.0676 1.20473 16.1596 1.27256 16.2274C1.34038 16.2953 1.43237 16.3334 1.52829 16.3334H2.91663" stroke="#EEF2E8" stroke-width="2" stroke-linecap="round" stroke-linejoin="round"/>
</g>
<defs>
<clipPath id="clip0_165_65">
<rect width="28" height="28" fill="white"/>
</clipPath>
</defs>
</svg>
