<svg width="110" height="28" viewBox="0 0 110 28" fill="none" xmlns="http://www.w3.org/2000/svg">
<path d="M9.22561 2.43264e-06C8.01384 -0.000890445 6.81379 0.244017 5.6941 0.720717C4.5744 1.19742 3.55703 1.89656 2.70018 2.77814C1.84334 3.65973 1.16382 4.70647 0.700492 5.85849C0.23717 7.01052 -0.000865457 8.24521 2.36437e-06 9.49197C2.36437e-06 16.6107 9.22561 28 9.22561 28C9.22561 28 18.4512 16.6107 18.4512 9.49197C18.4521 8.24521 18.214 7.01052 17.7507 5.85849C17.2874 4.70647 16.6079 3.65973 15.751 2.77814C14.8942 1.89656 13.8768 1.19742 12.7571 0.720717C11.6374 0.244017 10.4374 -0.000890445 9.22561 2.43264e-06Z" fill="#EB0303"/>
<path d="M6.81189 8.35449C7.44771 9.30207 7.96406 10.3289 8.34858 11.4102C7.94873 11.5998 7.01319 12.0661 6.4137 12.4231C6.04931 11.321 5.55032 10.2711 4.92871 9.29837L6.81189 8.35449Z" fill="#EEF2E8"/>
<path d="M8.15605 17.3281L8.10875 17.2551C7.74392 16.6654 7.28976 16.1394 6.76346 15.6973L6.63586 15.5898L6.78986 15.5286C10.1052 14.213 11.5561 12.0383 11.6408 8.25547V8.13721L13.7627 8.59387C13.9304 8.63178 14.0635 8.66234 14.0635 8.84002C14.0635 8.97696 13.9403 9.06637 13.8006 9.10881C13.1483 13.8118 11.1013 15.7822 8.22975 17.2885L8.15605 17.3281Z" fill="#EEF2E8"/>
<path d="M30.5595 11.1119C30.3515 10.8485 30.0743 10.6521 29.7609 10.5461C29.4555 10.4297 29.1329 10.3677 28.8072 10.3627C28.6246 10.3636 28.4425 10.385 28.2644 10.4267C28.0807 10.4684 27.9033 10.5354 27.737 10.6259C27.577 10.7112 27.4389 10.8341 27.3338 10.9846C27.2273 11.144 27.173 11.334 27.1787 11.5273C27.1714 11.6794 27.2017 11.831 27.2668 11.9678C27.3319 12.1045 27.4297 12.2221 27.5511 12.3093C27.8398 12.5106 28.156 12.6665 28.4893 12.7722C28.8666 12.8997 29.2725 13.0274 29.707 13.1553C30.1343 13.28 30.5436 13.4625 30.9242 13.698C31.3029 13.9335 31.624 14.2555 31.8625 14.639C32.1317 15.1176 32.2609 15.6661 32.2343 16.2184C32.2467 16.7853 32.1299 17.3473 31.8933 17.8594C31.6759 18.3149 31.3603 18.7133 30.9704 19.024C30.568 19.3399 30.1101 19.5728 29.6218 19.7098C28.4356 20.0414 27.1803 20.002 26.016 19.5967C25.382 19.3579 24.8019 18.9888 24.311 18.5119L26.032 16.5653C26.277 16.9043 26.5992 17.1764 26.9703 17.3575C27.335 17.5406 27.7354 17.6359 28.1412 17.6365C28.3421 17.6359 28.5423 17.6118 28.7379 17.5646C28.9282 17.5211 29.111 17.4484 29.2802 17.349C29.4339 17.2583 29.5655 17.133 29.6652 16.9823C29.7654 16.8265 29.8169 16.6428 29.8126 16.4561C29.8181 16.3 29.7863 16.145 29.72 16.0045C29.6538 15.864 29.5551 15.7424 29.4326 15.6503C29.1416 15.4334 28.82 15.2639 28.4789 15.1478C28.0965 15.0097 27.6831 14.8714 27.2387 14.733C26.8045 14.5994 26.3878 14.4119 25.9979 14.1745C25.6174 13.9424 25.2916 13.6264 25.0442 13.2493C24.7718 12.7951 24.6393 12.2669 24.6641 11.7338C24.6523 11.1808 24.7722 10.6331 25.0134 10.1386C25.2384 9.69063 25.5558 9.29858 25.9434 8.98992C26.3446 8.67462 26.7996 8.43932 27.2849 8.29616C27.7934 8.14173 28.321 8.06378 28.8512 8.06472C29.4606 8.06302 30.0669 8.15436 30.6503 8.33577C31.2307 8.51759 31.7653 8.82798 32.2167 9.24513L30.5595 11.1119Z" fill="#131313"/>
<path d="M34.5293 13.9996C34.5171 13.1588 34.6666 12.3237 34.9693 11.5426C35.2466 10.835 35.6667 10.196 36.2019 9.66786C36.7419 9.14402 37.3806 8.73959 38.0784 8.47953C39.6144 7.92642 41.2873 7.92642 42.8232 8.47953C43.5211 8.7397 44.1597 9.14411 44.6998 9.66786C45.2349 10.1961 45.655 10.8351 45.9324 11.5426C46.5216 13.1245 46.5216 14.8747 45.9324 16.4566C45.655 17.1642 45.2349 17.8032 44.6998 18.3314C44.1598 18.8552 43.5211 19.2597 42.8232 19.5197C41.2873 20.0728 39.6144 20.0728 38.0784 19.5197C37.3805 19.2598 36.7418 18.8553 36.2019 18.3314C35.6667 17.8033 35.2465 17.1643 34.9693 16.4566C34.6666 15.6755 34.517 14.8405 34.5293 13.9996ZM37.0417 13.9996C37.0358 14.4972 37.1172 14.9918 37.2821 15.4596C37.4331 15.8879 37.6678 16.2798 37.9717 16.6111C38.2757 16.9384 38.6429 17.1965 39.0497 17.3688C39.9518 17.7301 40.9527 17.7301 41.8547 17.3688C42.2615 17.1965 42.6287 16.9384 42.9327 16.6111C43.2362 16.2804 43.4711 15.8896 43.6229 15.4624C43.9435 14.5198 43.9435 13.4931 43.6229 12.5504C43.4724 12.1203 43.2374 11.7266 42.9327 11.3938C42.6287 11.0665 42.2615 10.8084 41.8547 10.6361C40.9527 10.2748 39.9518 10.2748 39.0497 10.6361C38.6429 10.8084 38.2757 11.0665 37.9717 11.3938C37.6667 11.7263 37.4317 12.1201 37.2815 12.5504C37.1185 13.015 37.0373 13.5057 37.0417 13.9996Z" fill="#131313"/>
<path d="M49.1982 8.35181H51.6182V17.3492H56.0996V19.6466H49.1982V8.35181Z" fill="#131313"/>
<path d="M57.9284 13.9997C57.9162 13.1588 58.0658 12.3238 58.3684 11.5426C58.6458 10.8351 59.0658 10.1961 59.6009 9.66789C60.141 9.14412 60.7797 8.7397 61.4775 8.47956C63.0136 7.92641 64.6867 7.92641 66.2228 8.47956C66.9206 8.73977 67.5592 9.14418 68.0994 9.66789C68.6346 10.196 69.0547 10.835 69.3319 11.5426C69.9212 13.1245 69.9212 14.8748 69.3319 16.4567C69.0548 17.1644 68.6347 17.8034 68.0994 18.3314C67.5593 18.8552 66.9207 19.2597 66.2228 19.5198C64.6867 20.0729 63.0136 20.0729 61.4775 19.5198C60.7796 19.2597 60.1409 18.8553 59.6009 18.3314C59.0658 17.8032 58.6457 17.1643 58.3684 16.4567C58.0657 15.6755 57.9162 14.8405 57.9284 13.9997ZM60.4407 13.9997C60.4348 14.4972 60.5162 14.9918 60.6811 15.4596C60.8327 15.8869 61.0676 16.2778 61.3713 16.6083C61.6753 16.9356 62.0425 17.1937 62.4493 17.366C63.3514 17.7272 64.3523 17.7272 65.2543 17.366C65.6611 17.1937 66.0283 16.9356 66.3323 16.6083C66.6358 16.2776 66.8707 15.8868 67.0225 15.4596C67.343 14.517 67.343 13.4903 67.0225 12.5476C66.872 12.1175 66.637 11.7237 66.3323 11.391C66.0283 11.0637 65.6611 10.8056 65.2543 10.6333C64.3523 10.2721 63.3514 10.2721 62.4493 10.6333C62.0425 10.8056 61.6753 11.0637 61.3713 11.391C61.0664 11.7236 60.8314 12.1173 60.6811 12.5476C60.5176 13.0131 60.4362 13.5048 60.4407 13.9997Z" fill="#131313"/>
<path d="M74.6281 10.5536H71.4932V8.35181H80.177V10.5536H77.0421V19.6478H74.6221L74.6281 10.5536Z" fill="#131313"/>
<path d="M81.9014 13.9996C81.8891 13.1588 82.0386 12.3237 82.3414 11.5426C82.6187 10.835 83.0388 10.196 83.5739 9.66786C84.1139 9.14396 84.7526 8.73952 85.4505 8.47953C86.9864 7.92642 88.6594 7.92642 90.1953 8.47953C90.8931 8.73967 91.5318 9.14409 92.0719 9.66786C92.6071 10.1959 93.0273 10.8349 93.3044 11.5426C93.8937 13.1245 93.8937 14.8747 93.3044 16.4566C93.0275 17.1643 92.6075 17.8033 92.0725 18.3314C91.5324 18.8553 90.8937 19.2597 90.1959 19.5197C88.6599 20.0728 86.987 20.0728 85.4511 19.5197C84.7531 19.2598 84.1144 18.8554 83.5745 18.3314C83.0393 17.8033 82.6192 17.1643 82.3419 16.4566C82.039 15.6756 81.8893 14.8405 81.9014 13.9996ZM84.4138 13.9996C84.4078 14.4971 84.4891 14.9917 84.6536 15.4596C84.8052 15.8869 85.0401 16.2778 85.3438 16.6083C85.6478 16.9356 86.015 17.1937 86.4218 17.366C87.3238 17.7273 88.3247 17.7273 89.2268 17.366C89.6336 17.1937 90.0008 16.9356 90.3048 16.6083C90.6084 16.2777 90.8433 15.8868 90.995 15.4596C91.3155 14.5169 91.3155 13.4902 90.995 12.5476C90.8446 12.1174 90.6096 11.7236 90.3048 11.3909C90.0008 11.0637 89.6336 10.8056 89.2268 10.6332C88.3247 10.272 87.3238 10.272 86.4218 10.6332C86.015 10.8056 85.6478 11.0637 85.3438 11.3909C85.0389 11.7236 84.8039 12.1173 84.6536 12.5476C84.4904 13.0131 84.4092 13.5048 84.4138 13.9996Z" fill="#131313"/>
<path d="M96.4769 8.35161H100.726C101.26 8.34975 101.793 8.40667 102.315 8.52137C102.786 8.61939 103.234 8.80896 103.635 9.07989C104.017 9.34615 104.327 9.70869 104.535 10.133C104.773 10.6481 104.887 11.2143 104.868 11.7842C104.889 12.5123 104.677 13.2272 104.263 13.8185C103.829 14.395 103.193 14.7746 102.492 14.8767L105.283 19.647H102.383L100.088 15.1319H98.8941V19.647H96.4741L96.4769 8.35161ZM98.8968 13.0263H100.324C100.541 13.0263 100.77 13.0184 101.013 13.0025C101.239 12.9905 101.462 12.942 101.673 12.8588C101.866 12.7817 102.035 12.652 102.162 12.4836C102.303 12.2734 102.371 12.0205 102.355 11.7655C102.367 11.5244 102.308 11.2853 102.185 11.0797C102.075 10.9132 101.926 10.7786 101.751 10.6887C101.56 10.5938 101.356 10.5319 101.146 10.5053C100.925 10.4738 100.702 10.4577 100.479 10.4572H98.8974L98.8968 13.0263Z" fill="#131313"/>
<path d="M107.58 8.35181H110V19.6478H107.58V8.35181Z" fill="#131313"/>
</svg>
