<svg width="30" height="30" viewBox="0 0 30 30" fill="none" xmlns="http://www.w3.org/2000/svg">
<mask id="mask0_220_3" style="mask-type:alpha" maskUnits="userSpaceOnUse" x="0" y="0" width="30" height="30">
<rect width="30" height="30" fill="white"/>
</mask>
<g mask="url(#mask0_220_3)">
<path d="M14.8846 2.6064e-06C13.5863 -0.000954048 12.3005 0.261447 11.1008 0.772197C9.90115 1.28295 8.81111 2.03202 7.89306 2.97658C6.975 3.92114 6.24694 5.04265 5.75053 6.27696C5.25411 7.51127 4.99907 8.83416 5 10.17C5 17.7971 14.8846 30 14.8846 30C14.8846 30 24.7692 17.7971 24.7692 10.17C24.7701 8.83416 24.5151 7.51127 24.0186 6.27696C23.5222 5.04265 22.7942 3.92114 21.8761 2.97658C20.9581 2.03202 19.868 1.28295 18.6683 0.772197C17.4687 0.261447 16.1829 -0.000954048 14.8846 2.6064e-06Z" fill="#EB0303"/>
<path d="M12.2985 8.95117C12.9797 9.96644 13.5329 11.0666 13.9449 12.2252C13.5165 12.4283 12.5141 12.9278 11.8718 13.3104C11.4814 12.1296 10.9468 11.0046 10.2808 9.96247L12.2985 8.95117Z" fill="white"/>
<path d="M13.7386 18.5659L13.688 18.4877C13.2971 17.8558 12.8105 17.2923 12.2466 16.8186L12.1099 16.7034L12.2749 16.6379C15.827 15.2283 17.3816 12.8983 17.4723 8.84522V8.71851L19.7458 9.20778C19.9255 9.24841 20.0681 9.28115 20.0681 9.47152C20.0681 9.61824 19.9361 9.71404 19.7864 9.75951C19.0875 14.7984 16.8942 16.9095 13.8176 18.5235L13.7386 18.5659Z" fill="white"/>
</g>
</svg>
